<?xml version="1.0" encoding="utf-8"?>
<!-- Generator: Adobe Illustrator 24.0.3, SVG Export Plug-In . SVG Version: 6.00 Build 0)  -->
<svg version="1.1" id="Calque_1" xmlns="http://www.w3.org/2000/svg" xmlns:xlink="http://www.w3.org/1999/xlink" x="0px" y="0px"
	 viewBox="0 0 429.1 320.7" style="enable-background:new 0 0 429.1 320.7;" xml:space="preserve">
<style type="text/css">
	.st0{fill:#4F0599;}
</style>
<title>Logo Scaleway Noir</title>
<g>
	<g>
		<path class="st0" d="M209.3,144.1H226h7c0,0,0,0,0,0c5.2-0.6,9.2-4.9,9.4-10.1v-6.3V99.8c0-2.3-0.9-4.3-2.4-5.8
			c-1.5-1.5-3.5-2.4-5.8-2.4c-4.5,0-8.2,3.7-8.2,8.2v21.7c0,3.4-2.8,6.2-6.2,6.2h-10.7c-2.3,0-4.3,0.9-5.8,2.4
			c-1.5,1.5-2.4,3.6-2.4,5.9C201,140.5,204.8,144.1,209.3,144.1z"/>
		<path class="st0" d="M220,66.1h-16.7h-7c0,0,0,0,0,0c-5.2,0.6-9.2,4.9-9.4,10.1v6.3v27.9c0,2.3,0.9,4.3,2.4,5.8
			c1.5,1.5,3.5,2.4,5.8,2.4c4.5,0,8.2-3.7,8.2-8.2l0-21.7c0-3.4,2.8-6.2,6.2-6.2h10.7c2.3,0,4.3-0.9,5.8-2.4
			c1.5-1.5,2.4-3.6,2.4-5.9C228.4,69.7,224.5,66.1,220,66.1z"/>
		<path class="st0" d="M224,49.6c19.2,0,34.9,15.7,34.9,34.9v67.1c0,0,0,0,0,0c-0.8,4.6-4.5,8.2-9.2,8.8c0,0,0,0,0,0h-44.6
			c-19.3,0-34.9-15.6-34.9-34.9V60.4c0-6,4.8-10.8,10.8-10.8H224 M224,33.2h-43.1c-15,0-27.2,12.2-27.2,27.2v65.1
			c0,28.3,23,51.3,51.3,51.3h45.4c0,0,0,0,0,0c13-1.1,23.5-11.3,24.8-24.2c0,0,0,0,0,0V84.5C275.3,56.1,252.4,33.2,224,33.2
			L224,33.2z"/>
	</g>
	<g>
		<path class="st0" d="M57.8,274.7c-4.6,0-9.1-1.2-13.4-3.4c-4.3-2.3-7.9-5.4-10.8-9.3c-0.7-1-0.6-2.3,0.3-3.1l5.2-4.6
			c0.4-0.4,1-0.6,1.5-0.6c0.1,0,0.2,0,0.3,0c0.7,0.1,1.3,0.5,1.6,1.1c1.8,2.9,4.2,5.2,7,6.9c2.8,1.7,5.8,2.5,9,2.5
			c3.4,0,6-0.7,7.6-2.1c1.6-1.3,2.3-3.1,2.3-5.5c0-2.6-0.8-4.5-2.5-5.8c-2-1.6-5.3-3-9.8-4.3c-13.3-3.3-20-9.6-20-18.8
			c0-5.7,1.9-10.2,5.7-13.4c3.7-3,8.8-4.6,15.1-4.6c4.6,0,8.7,0.9,12.4,2.6c3.7,1.7,7,4.4,9.8,7.9c0.8,1,0.7,2.4-0.3,3.2l-5,4.2
			c-0.4,0.4-1,0.6-1.5,0.6c-0.1,0-0.2,0-0.3,0c-0.6-0.1-1.2-0.4-1.6-0.9c-1.8-2.5-3.8-4.3-5.9-5.5c-2.1-1.1-4.6-1.7-7.6-1.7
			c-3,0-5.5,0.7-7.3,2c-1.6,1.2-2.4,2.8-2.4,4.9c0,2.2,0.7,3.9,2.3,5.2c1.8,1.5,5,2.8,9.6,3.9c6.2,1.7,11.1,4,14.6,7
			c3.8,3.2,5.7,7.7,5.7,13.4c0,3.6-0.9,6.7-2.8,9.5c-1.8,2.7-4.4,4.9-7.8,6.4C65.9,273.9,62.1,274.7,57.8,274.7z"/>
		<path class="st0" d="M107.3,274.9c-4.2,0-8.1-1-11.4-3c-3.3-2-6-4.9-7.9-8.4c-1.9-3.5-2.8-7.6-2.8-12c0-4.4,0.9-8.4,2.8-12
			c1.9-3.6,4.5-6.4,7.8-8.4c3.3-2,7.2-3,11.4-3c3.6,0,6.8,0.8,9.6,2.4c2.6,1.5,5.1,3.7,7.2,6.5c0.8,1,0.6,2.5-0.4,3.3l-4.2,3.3
			c-0.4,0.3-0.9,0.5-1.4,0.5c-0.1,0-0.2,0-0.4,0c-0.6-0.1-1.2-0.5-1.6-1c-2.3-3.4-5.2-5-8.8-5c-2.2,0-4.1,0.5-5.9,1.7
			c-1.7,1.1-3.1,2.7-4.1,4.7c-1,2.1-1.5,4.5-1.5,7.2c0,2.7,0.5,5.1,1.5,7.2c1,2.1,2.3,3.6,4.1,4.7c1.7,1.1,3.7,1.7,5.9,1.7
			c2.3,0,4.2-0.4,5.6-1.1c1.5-0.8,2.8-1.9,4-3.5c0.4-0.6,1.1-0.9,1.8-0.9c0.5,0,0.9,0.1,1.3,0.4l4.5,3.1c0.5,0.4,0.9,0.9,1,1.6
			c0.1,0.6-0.1,1.3-0.5,1.8c-2.1,2.6-4.6,4.6-7.7,6.2C114.1,274.1,110.8,274.9,107.3,274.9z"/>
		<path class="st0" d="M150.2,274.9c-4.2,0-8-1-11.4-3c-3.3-2-6-4.9-7.9-8.4c-1.9-3.5-2.8-7.6-2.8-12.1c0-4.4,0.9-8.4,2.8-11.9
			c1.9-3.5,4.5-6.4,7.8-8.4c3.3-2,7.1-3,11.3-3c3.2,0,6.3,0.7,9,2.2c0.9,0.5,1.8,1,2.6,1.7v-0.2c0-1.3,1-2.3,2.3-2.3h5.8
			c1.3,0,2.3,1,2.3,2.3l0,39.6c0,1.3-1,2.3-2.3,2.3H164c-1.3,0-2.3-1-2.3-2.3v-0.1c-0.8,0.6-1.7,1.2-2.6,1.6
			C156.4,274.2,153.4,274.9,150.2,274.9z M150.1,237.9c-2.2,0-4.1,0.5-5.8,1.7c-1.7,1.1-3.1,2.7-4.1,4.7c-1,2.1-1.5,4.5-1.5,7.1
			c0,2.7,0.5,5.2,1.5,7.3c1,2.1,2.3,3.6,4.1,4.7c1.7,1.1,3.6,1.7,5.8,1.7c2.3,0,4.2-0.5,6-1.7c1.8-1.1,3.1-2.7,4.1-4.7
			c1-2.1,1.5-4.5,1.5-7.2c0-2.7-0.5-5.1-1.5-7.2c-1-2-2.4-3.6-4.1-4.7C154.3,238.4,152.3,237.9,150.1,237.9z"/>
		<path class="st0" d="M181.9,273.4c-1.3,0-2.3-1-2.3-2.3l0-59c0-1.3,1-2.3,2.3-2.3h5.8c1.3,0,2.3,1,2.3,2.3v59c0,1.3-1,2.3-2.3,2.3
			L181.9,273.4z"/>
		<path class="st0" d="M282.3,273.6c-1,0-1.9-0.7-2.2-1.6l-7.5-23.6l-8.1,23.7c-0.3,0.9-1.2,1.6-2.2,1.6h-5.8c-1,0-1.9-0.6-2.2-1.6
			l-13-39.6c-0.3-1,0.1-2.2,1-2.7c0.4-0.2,0.8-0.3,1.3-0.3h6c1,0,1.9,0.6,2.2,1.6l7.9,24.6l8.1-24.7c0.3-1,1.2-1.6,2.2-1.6h5.6
			c1,0,1.9,0.7,2.2,1.6l7.8,24.4l7.8-24.4c0.3-1,1.2-1.6,2.2-1.6h5.5c0.3,0,0.6,0,0.9,0.2c1.2,0.5,1.7,1.8,1.3,2.9L290.5,272
			c-0.3,1-1.2,1.6-2.2,1.6H282.3z"/>
		<path class="st0" d="M326.8,274.9c-4.2,0-8-1-11.4-3c-3.3-2-6-4.9-7.9-8.4c-1.9-3.5-2.8-7.6-2.8-12.1c0-4.4,0.9-8.4,2.8-11.9
			c1.9-3.5,4.5-6.4,7.8-8.4c3.3-2,7.1-3,11.3-3c3.2,0,6.3,0.7,9,2.2c0.9,0.5,1.8,1,2.6,1.7v-0.2c0-1.3,1-2.3,2.3-2.3h5.8
			c1.3,0,2.3,1,2.3,2.3v39.6c0,1.3-1,2.3-2.3,2.3h-5.8c-1.3,0-2.3-1-2.3-2.3v-0.1c-0.8,0.6-1.7,1.2-2.6,1.6
			C333,274.2,330,274.9,326.8,274.9z M326.7,237.9c-2.2,0-4.1,0.5-5.8,1.7c-1.7,1.1-3.1,2.7-4.1,4.7c-1,2.1-1.5,4.5-1.5,7.1
			c0,2.7,0.5,5.2,1.5,7.3c1,2.1,2.3,3.6,4.1,4.7c1.7,1.1,3.6,1.7,5.8,1.7c2.3,0,4.2-0.5,6-1.7c1.8-1.1,3.1-2.7,4.1-4.7
			c1-2.1,1.5-4.5,1.5-7.2c0-2.7-0.5-5.1-1.5-7.2c-1-2-2.4-3.6-4.1-4.7C330.9,238.4,328.9,237.9,326.7,237.9z"/>
		<path class="st0" d="M232.5,259.6c-1.1-0.8-2.6-0.6-3.4,0.5c-1,1.2-2.3,2.6-3.7,3.4c-1.9,1-4.3,1.6-7.3,1.6
			c-3.5,0-6.1-1.1-8.1-3.5c-1.6-1.9-2.6-4.1-3.1-6.6h29.9c1.2,0,2.2-0.9,2.3-2.1c0.1-0.6,0.1-1.5,0.1-2.7c0-4.1-0.9-7.9-2.7-11.2
			c-1.8-3.4-4.4-6.1-7.6-8c-3.2-2-6.9-3-10.9-3c-4.2,0-8,1-11.3,3c-3.3,2-5.9,4.9-7.8,8.4c-1.8,3.5-2.8,7.6-2.8,12
			c0,4.4,0.9,8.5,2.8,12c1.9,3.6,4.5,6.4,7.9,8.4c3.3,2,7.2,3,11.4,3c4.5,0,8.6-0.9,11.9-2.8c3.5-1.9,5.7-4.3,7-6
			c0.9-1.2,0.6-2.8-0.6-3.7L232.5,259.6z M210.7,240.7c1.9-1.9,4.3-2.8,7.4-2.8c3.2,0,5.6,0.8,7.4,2.5c1.3,1.2,2.3,3,2.9,5.2
			l-20.7,0C208.3,243.7,209.3,242.1,210.7,240.7z"/>
		<path class="st0" d="M395.5,230.3c-0.4-0.6-1.2-1-1.9-1h-5.4c-1,0-1.8,0.6-2.2,1.5l-11.2,28.9l-10.6-28.9
			c-0.4-0.9-1.2-1.5-2.2-1.5h-6c-0.8,0-1.5,0.4-1.9,1c-0.4,0.6-0.5,1.5-0.2,2.2l15.6,41.1l0,0c-0.5,1.8-1.2,3.1-2.3,3.8
			c-1.5,1-4.2,1.1-5.7,1.2c-1.3,0.1-2.4,1.2-2.4,2.5v4c0,1.4,1.1,2.5,2.5,2.5c2.4,0,6.3,0.2,9.4-1.4c6.3-3.3,7.2-7.4,9-12.1
			l15.8-41.6C396,231.8,395.9,231,395.5,230.3z"/>
	</g>
</g>
</svg>
