<svg xmlns="http://www.w3.org/2000/svg" viewBox="0 0 646 486">
    <defs>
        <clipPath id="clip-path">
            <rect class="cls-1" x="3" y="3" width="640" height="480" rx="40"/>
        </clipPath>
        <style>
            .cls-1{fill:none;stroke:#b2b6c3;stroke-miterlimit:10;stroke-width:6px}.cls-4{fill-rule:evenodd;fill:#fff}
        </style>
    </defs>
    <g id="Calque_2" data-name="Calque 2">
        <g id="Calque_1-2" data-name="Calque 1">
            <g clip-path="url(#clip-path)">
                <path d="M3 3h640v36.938H3zm0 73.875h640v36.938H3zm0 73.781h640v37.031H3zm0 73.875h640v36.938H3zm0 73.875h640v36.938H3zm0 73.781h640v36.938H3zm0 73.875h640V483H3z" fill-rule="evenodd" fill="#bd3d44"/>
                <path class="cls-4" d="M3 39.938h640v36.937H3zm0 73.874h640v36.844H3zm0 73.782h640v36.937H3zm0 73.875h640v36.937H3zm0 73.875h640v36.937H3zm0 73.781h640v36.938H3z"/>
                <path d="M3 3h364.781v258.469H3z" fill="#192f5d" fill-rule="evenodd"/>
                <path class="cls-4" d="M33.375 14.063 36.75 24.28h10.688l-8.626 6.282 3.282 10.312-8.719-6.375-8.625 6.281 3.281-10.218-8.718-6.282h10.874zm60.844 0L97.5 24.28h10.781l-8.719 6.282 3.282 10.312-8.625-6.375L85.5 40.78l3.281-10.218-8.625-6.282h10.688zm60.75 0 3.375 10.218h10.593l-8.625 6.282 3.282 10.312-8.719-6.375-8.625 6.281 3.281-10.218-8.719-6.282h10.782zm60.844 0 3.28 10.218h10.782l-8.719 6.282 3.375 10.312-8.719-6.375-8.718 6.281 3.375-10.218-8.719-6.282h10.687zm60.75 0 3.375 10.218h10.687L282 30.563l3.281 10.312-8.719-6.375-8.625 6.281 3.282-10.218-8.625-6.282h10.687zm60.843 0 3.281 10.218h10.782l-8.719 6.282 3.375 10.312-8.719-6.375-8.719 6.281 3.375-10.218-8.718-6.282h10.781zM63.844 39.936l3.281 10.22h10.781l-8.719 6.28 3.188 10.22-8.438-6.282-8.718 6.281 3.093-10.218-8.437-6.282h10.687zm60.75 0 3.375 10.22h10.687l-8.719 6.28 3.375 10.22-8.718-6.282-8.719 6.281 3.375-10.219-8.719-6.28h10.781zm60.843 0 3.282 10.22H199.5l-8.719 6.28 3.281 10.22-8.625-6.282-8.718 6.281L180 56.438l-8.625-6.282h10.687zm60.75 0 3.375 10.22h10.688l-8.719 6.28 3.375 10.22-8.719-6.282-8.625 6.281 3.282-10.218-8.719-6.282H243zm60.844 0 3.281 10.22h10.782l-8.719 6.28 3.281 10.22-8.625-6.282-8.719 6.281 3.282-10.218-8.625-6.282h10.687zM33.375 65.72l3.375 10.406h10.687l-8.625 6.281 3.282 10.219-8.719-6.375-8.625 6.375 3.281-10.313-8.719-6.28h10.875zm60.844 0L97.5 76.03h10.781l-8.719 6.281 3.282 10.22-8.625-6.376L85.5 92.53l3.281-10.312-8.625-6.281h10.688zm60.75 0 3.375 10.312h10.593l-8.625 6.281 3.282 10.22-8.719-6.376-8.625 6.375 3.281-10.312-8.719-6.281h10.782zm60.843 0 3.282 10.312h10.781l-8.719 6.281 3.375 10.22-8.719-6.376-8.718 6.375 3.375-10.312-8.719-6.281h10.687zm60.75 0 3.375 10.312h10.688L282 82.312l3.281 10.22-8.719-6.376-8.625 6.375 3.282-10.312-8.625-6.281h10.687zm60.844 0 3.281 10.312h10.782l-8.719 6.281 3.375 10.22-8.719-6.376-8.719 6.375 3.375-10.312-8.718-6.281h10.781zM63.844 91.594l3.281 10.219h10.781l-8.719 6.28 3.282 10.313-8.625-6.375-8.719 6.281 3.281-10.218-8.625-6.281H60.47zm60.75 0 3.375 10.219h10.687l-8.719 6.28 3.376 10.313-8.72-6.375-8.718 6.281 3.375-10.218-8.719-6.281h10.781zm60.844 0 3.28 10.219H199.5l-8.719 6.28 3.281 10.313-8.625-6.375-8.718 6.281L180 108.094l-8.625-6.281h10.688zm60.75 0 3.375 10.219h10.687l-8.625 6.28 3.281 10.313-8.719-6.375-8.625 6.281 3.282-10.218-8.719-6.281H243zm60.843 0 3.281 10.219h10.782l-8.719 6.28 3.281 10.313-8.625-6.375-8.719 6.281 3.282-10.218-8.625-6.281h10.687zM33.375 117.469l3.375 10.219h10.688l-8.625 6.28 3.28 10.313-8.718-6.375-8.625 6.281 3.281-10.218-8.718-6.281h10.875zm60.844 0 3.281 10.219h10.781l-8.719 6.28 3.282 10.22-8.625-6.282-8.719 6.281 3.281-10.218-8.625-6.281h10.688zm60.75 0 3.375 10.219h10.594l-8.625 6.28 3.28 10.313-8.718-6.375-8.625 6.281 3.281-10.218-8.718-6.281h10.78zm60.844 0 3.28 10.219h10.782l-8.719 6.28 3.375 10.313-8.718-6.375-8.72 6.281 3.376-10.218-8.719-6.281h10.688zm60.75 0 3.375 10.219h10.687l-8.625 6.28 3.281 10.313-8.719-6.375-8.625 6.281 3.282-10.218-8.625-6.281h10.687zm60.843 0 3.281 10.219h10.782l-8.719 6.28 3.375 10.313-8.719-6.375-8.719 6.281 3.375-10.218-8.718-6.281h10.781zM63.844 143.344l3.281 10.219h10.781l-8.718 6.28 3.28 10.22-8.624-6.375-8.719 6.375 3.281-10.313-8.625-6.281H60.47zm60.75 0 3.375 10.219h10.687l-8.718 6.28 3.375 10.22-8.72-6.375-8.718 6.375 3.375-10.313-8.719-6.281h10.782zm60.844 0 3.28 10.219H199.5l-8.719 6.28 3.282 10.22-8.625-6.375-8.72 6.375L180 159.75l-8.625-6.281h10.688zm60.75 0 3.375 10.219h10.687l-8.625 6.28 3.281 10.22-8.718-6.375-8.625 6.375 3.28-10.313-8.718-6.281H243zm60.843 0 3.282 10.219h10.78l-8.718 6.28 3.281 10.22-8.625-6.375-8.718 6.375 3.28-10.313-8.624-6.281h10.687zM33.375 169.125l3.375 10.313h10.688l-8.625 6.28 3.28 10.126-8.718-6.281-8.625 6.28 3.281-10.218-8.718-6.281h10.875zm60.844 0 3.281 10.313h10.781l-8.718 6.28 3.375 10.126-8.72-6.281-8.718 6.28 3.375-10.218-8.719-6.281h10.688zm60.75 0 3.375 10.313h10.594l-8.625 6.28 3.28 10.126-8.718-6.281-8.625 6.28 3.281-10.218-8.718-6.281h10.78zm60.844 0 3.28 10.313h10.782l-8.719 6.28 3.375 10.126-8.718-6.281-8.72 6.28 3.376-10.218-8.719-6.281h10.688zm60.75 0 3.375 10.313h10.687l-8.625 6.28 3.281 10.126-8.718-6.281-8.625 6.28 3.28-10.218-8.624-6.281h10.687zm60.843 0 3.282 10.313h10.78l-8.718 6.28 3.375 10.126-8.719-6.281-8.718 6.28 3.375-10.218-8.72-6.281h10.782zM63.844 195l3.281 10.219h10.781l-8.718 6.281 3.28 10.313-8.624-6.375-8.719 6.28 3.281-10.218-8.625-6.281H60.47zm60.75 0 3.375 10.219h10.687l-8.718 6.281 3.375 10.313-8.72-6.375-8.718 6.28 3.375-10.218-8.719-6.281h10.782zm60.844 0 3.28 10.219H199.5l-8.719 6.281 3.282 10.313-8.625-6.375-8.72 6.28L180 211.5l-8.625-6.281h10.688zm60.75 0 3.375 10.219h10.687l-8.625 6.281 3.281 10.313-8.718-6.375-8.625 6.28 3.28-10.218-8.718-6.281H243zm60.843 0 3.282 10.219h10.78l-8.718 6.281 3.281 10.313-8.625-6.375-8.718 6.28 3.28-10.218-8.624-6.281h10.687zM33.375 220.875l3.375 10.219h10.688l-8.625 6.281 3.28 10.219-8.718-6.281-8.625 6.28 3.281-10.312L19.313 231h10.875zm60.844 0 3.281 10.219h10.781l-8.718 6.281 3.375 10.219-8.72-6.281-8.718 6.28 3.375-10.312L80.156 231h10.688zm60.75 0 3.375 10.219h10.594l-8.438 6.281 3.281 10.219-8.718-6.281-8.625 6.28 3.28-10.312L141 231h10.781zm60.844 0 3.28 10.219h10.782l-8.719 6.281 3.375 10.219-8.718-6.281-8.72 6.28 3.376-10.312L201.75 231h10.688zm60.75 0 3.375 10.219h10.687L282 237.375l3.281 10.219-8.718-6.281-8.625 6.28 3.28-10.312-8.624-6.281h10.687zm60.843 0 3.282 10.219h10.78l-8.718 6.281 3.375 10.219-8.719-6.281-8.718 6.28 3.375-10.312-8.72-6.281h10.782z"/>
            </g>
            <rect class="cls-1" x="3" y="3" width="640" height="480" rx="40"/>
        </g>
    </g>
</svg>
